<svg width="26" height="26" viewBox="0 0 26 26" fill="none" xmlns="http://www.w3.org/2000/svg">
<path d="M24.1074 10.9945H15.5575V2.42955C15.5575 1.46573 14.757 0.684082 13.7701 0.684082H13.0254C12.0384 0.684082 11.238 1.46573 11.238 2.42955V10.9945H2.6821C1.69516 10.9945 0.894775 11.7761 0.894775 12.7399V13.4672C0.894775 14.431 1.69516 15.2127 2.6821 15.2127H11.238V23.9386C11.238 24.9025 12.0384 25.6841 13.0254 25.6841H13.7701C14.757 25.6841 15.5575 24.9025 15.5575 23.9386V15.2127H24.1074C25.0944 15.2127 25.8948 14.431 25.8948 13.4672V12.7399C25.8948 11.7761 25.0944 10.9945 24.1074 10.9945Z" fill="white"/>
</svg>
