<svg width="28" height="28" viewBox="0 0 28 28" fill="none" xmlns="http://www.w3.org/2000/svg">
<path d="M9.36532 22.2425C9.36532 22.3517 9.23548 22.4391 9.07177 22.4391C8.88548 22.4555 8.75565 22.3681 8.75565 22.2425C8.75565 22.1332 8.88548 22.0458 9.04919 22.0458C9.21855 22.0294 9.36532 22.1168 9.36532 22.2425ZM7.60968 21.9967C7.57016 22.1059 7.68306 22.2316 7.85242 22.2643C7.99919 22.319 8.16855 22.2643 8.20242 22.1551C8.23629 22.0458 8.12903 21.9202 7.95968 21.871C7.8129 21.8328 7.64919 21.8874 7.60968 21.9967ZM10.1048 21.9038C9.94113 21.942 9.82823 22.0458 9.84516 22.1715C9.8621 22.2807 10.0089 22.3517 10.1782 22.3135C10.3419 22.2753 10.4548 22.1715 10.4379 22.0622C10.421 21.9584 10.2685 21.8874 10.1048 21.9038ZM13.8194 0.970337C5.98952 0.970337 0 6.72267 0 14.2996C0 20.3578 3.94032 25.542 9.56855 27.3666C10.2911 27.4922 10.5452 27.0607 10.5452 26.7056C10.5452 26.3669 10.5282 24.4986 10.5282 23.3514C10.5282 23.3514 6.57661 24.1709 5.74677 21.7235C5.74677 21.7235 5.10323 20.1338 4.17742 19.7241C4.17742 19.7241 2.88468 18.8665 4.26774 18.8829C4.26774 18.8829 5.67339 18.9921 6.44677 20.2923C7.68306 22.4009 9.75484 21.7945 10.5621 21.434C10.6919 20.5599 11.0589 19.9536 11.4653 19.593C8.30968 19.2543 5.12581 18.8118 5.12581 13.5566C5.12581 12.0544 5.55484 11.3005 6.45806 10.339C6.31129 9.98396 5.83145 8.51993 6.60484 6.6298C7.78468 6.27472 10.5 8.10476 10.5 8.10476C11.629 7.79884 12.8427 7.64042 14.0452 7.64042C15.2476 7.64042 16.4613 7.79884 17.5903 8.10476C17.5903 8.10476 20.3056 6.26925 21.4855 6.6298C22.2589 8.52539 21.779 9.98396 21.6323 10.339C22.5355 11.306 23.0887 12.0598 23.0887 13.5566C23.0887 18.8282 19.7637 19.2489 16.6081 19.593C17.1274 20.0246 17.5677 20.844 17.5677 22.1278C17.5677 23.9687 17.5508 26.2467 17.5508 26.6947C17.5508 27.0498 17.8105 27.4813 18.5274 27.3557C24.1726 25.542 28 20.3578 28 14.2996C28 6.72267 21.6492 0.970337 13.8194 0.970337ZM5.4871 19.8115C5.41371 19.8662 5.43065 19.9918 5.52661 20.0956C5.61694 20.183 5.74677 20.2213 5.82016 20.1502C5.89355 20.0956 5.87661 19.97 5.78065 19.8662C5.69032 19.7788 5.56048 19.7405 5.4871 19.8115ZM4.87742 19.3691C4.8379 19.4401 4.89435 19.5275 5.00726 19.5821C5.09758 19.6367 5.21048 19.6203 5.25 19.5439C5.28952 19.4728 5.23306 19.3854 5.12016 19.3308C5.00726 19.298 4.91694 19.3144 4.87742 19.3691ZM6.70645 21.3138C6.61613 21.3848 6.65 21.5487 6.77984 21.6525C6.90968 21.7782 7.07339 21.7945 7.14677 21.7071C7.22016 21.6361 7.18629 21.4722 7.07339 21.3684C6.94919 21.2428 6.77984 21.2264 6.70645 21.3138ZM6.0629 20.5108C5.97258 20.5654 5.97258 20.7074 6.0629 20.8331C6.15323 20.9587 6.30564 21.0134 6.37903 20.9587C6.46935 20.8877 6.46935 20.7457 6.37903 20.62C6.3 20.4944 6.15323 20.4398 6.0629 20.5108Z"/>
</svg>
