<svg width="25" height="25" viewBox="0 0 25 25" fill="none" xmlns="http://www.w3.org/2000/svg"> <!--! Font Awesome Pro 6.4.2 by @fontawesome - https://fontawesome.com License - https://fontawesome.com/license (Commercial License) Copyright 2023 Fonticons, Inc. -->
<path d="M24.2449 12.4019C24.2425 12.4264 24.2413 12.451 24.2413 12.4756C24.2413 13.0131 23.8568 13.293 23.6024 13.293H22.2135C22.0141 13.293 21.8229 13.3724 21.6822 13.5137C21.5414 13.655 21.4628 13.8465 21.4635 14.0459L21.4939 21.8652C21.4939 21.8657 21.4939 21.8661 21.4939 21.8666C21.4939 21.9658 21.4873 22.0712 21.4759 22.187C21.4734 22.2115 21.4722 22.2361 21.4722 22.2607V23.0469C21.4722 23.7972 20.9505 24.25 20.4861 24.25H19.7917C19.7662 24.25 19.7519 24.25 19.7392 24.2496C19.7276 24.2493 19.7239 24.2489 19.7247 24.249C19.6794 24.2444 19.6338 24.2439 19.5884 24.2475C19.5626 24.2496 19.5319 24.25 19.4661 24.25H18.0556H17.0139C16.5495 24.25 16.0278 23.7972 16.0278 23.0469V21.875V18.75C16.0278 17.557 15.1519 16.4375 13.8889 16.4375H11.1111C9.84806 16.4375 8.97222 17.557 8.97222 18.75V21.875V23.0469C8.97222 23.7972 8.45049 24.25 7.98611 24.25H6.94444H5.5599C5.52758 24.25 5.49052 24.2476 5.42068 24.2423C5.37868 24.2392 5.3365 24.2396 5.29458 24.2435C5.23652 24.249 5.21945 24.25 5.20833 24.25H4.51389C4.04951 24.25 3.52778 23.7972 3.52778 23.0469V17.5781C3.52778 17.5548 3.52781 17.5403 3.52812 17.5273C3.52828 17.5204 3.52847 17.5164 3.52856 17.5147C3.52864 17.5132 3.52865 17.5135 3.52849 17.5151C3.53091 17.4906 3.53212 17.466 3.53212 17.4414V14.043C3.53212 13.6288 3.19633 13.293 2.78212 13.293H1.38889C1.10389 13.293 0.75 13.0323 0.75 12.4756C0.75 12.2096 0.82013 12.0057 0.979761 11.819L12.0876 0.926112C12.0999 0.914116 12.1117 0.901704 12.1231 0.888898C12.1863 0.817734 12.2376 0.791976 12.2798 0.777758C12.3319 0.760147 12.4023 0.75 12.5174 0.75C12.6735 0.75 12.8189 0.801429 12.9105 0.883987L23.9865 11.837L23.9877 11.8382C24.2127 12.0596 24.2612 12.2377 24.2449 12.4019Z" stroke="black" stroke-width="1.5" stroke-linejoin="round"/>
</svg>
