<svg width="15" height="18" viewBox="0 0 15 18" fill="none" xmlns="http://www.w3.org/2000/svg">
<path d="M10.9118 0C9.7338 0 8.76399 1.0822 8.76399 2.39674C8.76399 3.71128 9.7338 4.79348 10.9118 4.79348C12.0926 4.79348 13.0816 3.71128 13.0816 2.39674C13.0816 1.0822 12.0926 0 10.9118 0ZM10.9118 1.56522C11.3337 1.56522 11.6789 1.92901 11.6789 2.39674C11.6789 2.86447 11.3337 3.22826 10.9118 3.22826C10.4927 3.22826 10.1667 2.86753 10.1667 2.39674C10.1667 1.92901 10.4927 1.56522 10.9118 1.56522ZM5.80525 3.13043C5.46828 3.1763 5.12857 3.35054 4.88475 3.64402L2.51775 6.50543L3.56975 7.58152L5.91483 4.72011C5.93949 4.69259 5.97236 4.67425 6.0025 4.69565L7.12024 5.52717L5.4765 8.07065C4.96145 8.87772 5.04638 9.98743 5.67375 10.6875L8.15032 13.4511L6.11208 18H7.69007L9.42149 14.1603C9.69271 13.5581 9.58587 12.8274 9.15849 12.3505L6.68191 9.58696C6.53945 9.42798 6.52028 9.15896 6.63808 8.97554L8.28182 6.40761L8.85166 6.82337L9.9694 8.70652C10.2297 9.14063 10.6625 9.3913 11.131 9.3913H14.2651V7.82609H11.131L9.94749 5.82065L9.85982 5.69837L9.75024 5.60054L6.79149 3.39946C6.49288 3.17629 6.14222 3.08458 5.80525 3.13043ZM5.19158 11.3723L4.1615 12.5217H0.939758V14.087H4.1615C4.53134 14.087 4.88475 13.9188 5.14775 13.6223L6.17783 12.4728L5.19158 11.3723Z" fill="black"/>
<path d="M10.9118 0C9.7338 0 8.76399 1.0822 8.76399 2.39674C8.76399 3.71128 9.7338 4.79348 10.9118 4.79348C12.0926 4.79348 13.0816 3.71128 13.0816 2.39674C13.0816 1.0822 12.0926 0 10.9118 0ZM10.9118 1.56522C11.3337 1.56522 11.6789 1.92901 11.6789 2.39674C11.6789 2.86447 11.3337 3.22826 10.9118 3.22826C10.4927 3.22826 10.1667 2.86753 10.1667 2.39674C10.1667 1.92901 10.4927 1.56522 10.9118 1.56522ZM5.80525 3.13043C5.46828 3.1763 5.12857 3.35054 4.88475 3.64402L2.51775 6.50543L3.56975 7.58152L5.91483 4.72011C5.93949 4.69259 5.97236 4.67425 6.0025 4.69565L7.12024 5.52717L5.4765 8.07065C4.96145 8.87772 5.04638 9.98743 5.67375 10.6875L8.15032 13.4511L6.11208 18H7.69007L9.42149 14.1603C9.69271 13.5581 9.58587 12.8274 9.15849 12.3505L6.68191 9.58696C6.53945 9.42798 6.52028 9.15896 6.63808 8.97554L8.28182 6.40761L8.85166 6.82337L9.9694 8.70652C10.2297 9.14063 10.6625 9.3913 11.131 9.3913H14.2651V7.82609H11.131L9.94749 5.82065L9.85982 5.69837L9.75024 5.60054L6.79149 3.39946C6.49288 3.17629 6.14222 3.08458 5.80525 3.13043ZM5.19158 11.3723L4.1615 12.5217H0.939758V14.087H4.1615C4.53134 14.087 4.88475 13.9188 5.14775 13.6223L6.17783 12.4728L5.19158 11.3723Z" fill="black"/>
</svg>
