<svg width="30" height="29" viewBox="0 0 30 29" fill="none" xmlns="http://www.w3.org/2000/svg">
<rect x="0.65" y="0.65" width="27.7" height="27.7" rx="13.85" stroke="#FFB906" stroke-width="1.3"/>
<path d="M16.2239 6.72727L16.0301 17.6076H13.9644L13.7705 6.72727H16.2239ZM15.0009 22.1417C14.5883 22.1417 14.2353 21.9975 13.942 21.7092C13.6487 21.4158 13.5045 21.0629 13.5095 20.6502C13.5045 20.2425 13.6487 19.8945 13.942 19.6062C14.2353 19.3129 14.5883 19.1662 15.0009 19.1662C15.4036 19.1662 15.7516 19.3129 16.045 19.6062C16.3383 19.8945 16.4874 20.2425 16.4924 20.6502C16.4874 20.9237 16.4154 21.1747 16.2761 21.4034C16.1419 21.6271 15.9629 21.8061 15.7392 21.9403C15.5155 22.0746 15.2694 22.1417 15.0009 22.1417Z" fill="#FFB906"/>
</svg>
